<svg xmlns="http://www.w3.org/2000/svg" viewBox="0 0 240 60" width="100%" height="100%">
  <defs>
    <linearGradient id="mashreqGrad" x1="0%" y1="0%" x2="100%" y2="100%">
      <stop offset="0%" stop-color="#FF8A00" />
      <stop offset="100%" stop-color="#FF3D00" />
    </linearGradient>
  </defs>
  <!-- Sunburst Icon -->
  <g transform="translate(10, 8)">
    <path d="M 0 35 C 10 25, 25 25, 30 35 C 20 40, 10 40, 0 35 Z" fill="url(#mashreqGrad)" transform="rotate(-40 15 35)" />
    <path d="M 0 35 C 10 20, 28 15, 35 30 C 22 40, 10 42, 0 35 Z" fill="url(#mashreqGrad)" transform="rotate(-15 15 35)" />
    <path d="M 0 35 C 10 15, 30 8, 38 25 C 24 38, 10 40, 0 35 Z" fill="url(#mashreqGrad)" transform="rotate(10 15 35)" />
    <path d="M 0 35 C 10 10, 32 0, 40 18 C 26 35, 10 38, 0 35 Z" fill="url(#mashreqGrad)" transform="rotate(35 15 35)" />
    <path d="M 0 35 C 10 5, 30 -5, 38 10 C 26 30, 10 35, 0 35 Z" fill="url(#mashreqGrad)" transform="rotate(60 15 35)" />
  </g>
  <!-- Text -->
  <g transform="translate(68, 5)">
    <text x="0" y="28" font-family="'Outfit', 'Helvetica Neue', sans-serif" font-weight="700" font-size="28" fill="#1E3A8A">mashreq</text>
    <text x="0" y="42" font-family="'Outfit', 'Helvetica Neue', sans-serif" font-weight="600" font-size="9" fill="#FF6B00" letter-spacing="1.5">WE MAKE POSSIBLE</text>
  </g>
</svg>
